<svg xmlns="http://www.w3.org/2000/svg" xmlns:ev="http://www.w3.org/2001/xml-events" xmlns:xlink="http://www.w3.org/1999/xlink" width="1122.518" height="793.701" class="st17" color-interpolation-filters="sRGB" viewBox="0 0 841.89 595.276" xml:space="preserve"><style type="text/css">.st1,.st2{stroke:#fff;stroke-width:.5}.st1{fill:#5b9bd5;stroke-linecap:round;stroke-linejoin:round}.st2{stroke-linecap:butt}.st3{fill:#1e4a73;font-family:Calibri;font-size:1.5em}.st4{fill:#aad288;stroke:#fff;stroke-linecap:round;stroke-linejoin:round;stroke-width:.5}.st5{fill:#fff}.st6{font-size:1em}.st7{fill:#5b9bd5}.st8{stroke:#fff;stroke-linecap:round;stroke-linejoin:round;stroke-width:.5}.st9{fill:#a5a5a5}.st10,.st11{stroke:#5592c9}.st10{marker-end:url(#mrkr4-135);marker-start:url(#mrkr4-133);stroke-linecap:round;stroke-linejoin:round;stroke-width:1.5}.st11{fill:#5592c9;fill-opacity:1;stroke-opacity:1;stroke-width:.37313432835821}.st12{fill:#fff;stroke:none;stroke-linecap:butt;stroke-width:7.2}.st13{fill:#41729d;font-family:Calibri;font-size:1.5em}.st14,.st15{fill:none;stroke-linecap:round;stroke-linejoin:round}.st14{stroke:#42829e;stroke-dasharray:45,27;stroke-width:3}.st15{stroke:none;stroke-width:.5}.st16{fill:#5b9bd5;font-family:Calibri;font-size:1.99999em}.st17{fill:none;fill-rule:evenodd;font-size:12px;overflow:visible;stroke-linecap:square;stroke-miterlimit:3}</style><defs id="Markers"><g id="lend4"><path d="M 2 1 L 0 0 L 2 -1 L 2 1" style="stroke:none"/></g><marker id="mrkr4-133" class="st11" markerUnits="strokeWidth" orient="auto" overflow="visible" refX="5.12"><use transform="scale(2.68)" xlink:href="#lend4"/></marker><marker id="mrkr4-135" class="st11" markerUnits="strokeWidth" orient="auto" overflow="visible" refX="-5.36"><use transform="scale(-2.68,-2.68)" xlink:href="#lend4"/></marker></defs><g><title>页-1</title><g id="group1-1" transform="translate(418.11,-311.811)"><title>防火墙</title><desc>NAT</desc><g id="shape2-2" transform="translate(0.545123,-7.63784)"><title>工作表.2</title><rect width="69.776" height="55.59" x="0" y="539.685" class="st1"/></g><g id="shape3-4" transform="translate(0.795123,-7.88784)"><title>工作表.3</title><path d="M0 587.41 L69.28 587.41" class="st2"/><path d="M0 579.54 L69.28 579.54" class="st2"/><path d="M0 571.67 L69.28 571.67" class="st2"/><path d="M0 563.8 L69.28 563.8" class="st2"/><path d="M0 555.93 L69.28 555.93" class="st2"/><path d="M0 548.06 L69.28 548.06" class="st2"/><path d="M17.32 595.28 L17.32 587.41" class="st2"/><path d="M34.64 595.28 L34.64 587.41" class="st2"/><path d="M51.96 595.28 L51.96 587.41" class="st2"/><path d="M8.66 587.41 L8.66 579.54" class="st2"/><path d="M25.98 587.41 L25.98 579.54" class="st2"/><path d="M43.3 587.41 L43.3 579.54" class="st2"/><path d="M60.62 587.41 L60.62 579.54" class="st2"/><path d="M17.32 579.54 L17.32 571.67" class="st2"/><path d="M34.64 579.54 L34.64 571.67" class="st2"/><path d="M51.96 579.54 L51.96 571.67" class="st2"/><path d="M8.66 571.67 L8.66 563.8" class="st2"/><path d="M25.98 571.67 L25.98 563.8" class="st2"/><path d="M43.3 571.67 L43.3 563.8" class="st2"/><path d="M60.62 571.67 L60.62 563.8" class="st2"/><path d="M17.32 563.8 L17.32 555.93" class="st2"/><path d="M34.64 563.8 L34.64 555.93" class="st2"/><path d="M51.96 563.8 L51.96 555.93" class="st2"/><path d="M8.66 555.93 L8.66 548.06" class="st2"/><path d="M25.98 555.93 L25.98 548.06" class="st2"/><path d="M43.3 555.93 L43.3 548.06" class="st2"/><path d="M60.62 555.93 L60.62 548.06" class="st2"/><path d="M17.32 548.06 L17.32 540.19" class="st2"/><path d="M34.64 548.06 L34.64 540.19" class="st2"/><path d="M51.96 548.06 L51.96 540.19" class="st2"/></g><g id="shape1-36"><text x="20.03" y="615.48" class="st3">NAT</text></g></g><g id="group4-38" transform="translate(701.575,-311.811)"><title>服务器</title><desc>Application2 10.0.0.4:PORT</desc><g id="shape5-39" transform="translate(12.8133,0)"><title>工作表.5</title><rect width="45.239" height="70.866" x="0" y="524.409" class="st1"/></g><g id="shape6-41" transform="translate(46.625,-30.2513)"><title>工作表.6</title><ellipse cx="2.735" cy="592.541" class="st4" rx="2.735" ry="2.735"/></g><g id="shape7-43" transform="translate(30.0295,-11.6164)"><title>工作表.7</title><path d="M-0 595.28 L22.06 595.28 L22.06 593.5 L-0 593.5 L-0 595.28 ZM-0 589.9 L22.06 589.9 L22.06 588.13 L-0 588.13 L-0 589.9 ZM-0 584.53 L22.06 584.53 L22.06 582.76 L-0 582.76 L-0 584.53 Z" class="st5"/></g><g id="shape4-46"><text x="-10.6" y="615.48" class="st3">Application2<tspan x="-16.48" class="st6" dy="1.2em">10.0.0.4:PORT</tspan></text></g></g><g id="group8-49" transform="translate(701.575,-496.063)"><title>服务器.8</title><desc>Application1 10.0.0.3:PORT</desc><g id="shape9-50" transform="translate(12.8133,0)"><title>工作表.9</title><rect width="45.239" height="70.866" x="0" y="524.409" class="st1"/></g><g id="shape10-52" transform="translate(46.625,-30.2513)"><title>工作表.10</title><ellipse cx="2.735" cy="592.541" class="st4" rx="2.735" ry="2.735"/></g><g id="shape11-54" transform="translate(30.0295,-11.6164)"><title>工作表.11</title><path d="M-0 595.28 L22.06 595.28 L22.06 593.5 L-0 593.5 L-0 595.28 ZM-0 589.9 L22.06 589.9 L22.06 588.13 L-0 588.13 L-0 589.9 ZM-0 584.53 L22.06 584.53 L22.06 582.76 L-0 582.76 L-0 584.53 Z" class="st5"/></g><g id="shape8-57"><text x="-10.6" y="615.48" class="st3">Application1<tspan x="-16.48" class="st6" dy="1.2em">10.0.0.3:PORT</tspan></text></g></g><g id="group12-60" transform="translate(701.575,-127.559)"><title>服务器.12</title><desc>Application3 10.0.0.5:PORT</desc><g id="shape13-61" transform="translate(12.8133,0)"><title>工作表.13</title><rect width="45.239" height="70.866" x="0" y="524.409" class="st1"/></g><g id="shape14-63" transform="translate(46.625,-30.2513)"><title>工作表.14</title><ellipse cx="2.735" cy="592.541" class="st4" rx="2.735" ry="2.735"/></g><g id="shape15-65" transform="translate(30.0295,-11.6164)"><title>工作表.15</title><path d="M-0 595.28 L22.06 595.28 L22.06 593.5 L-0 593.5 L-0 595.28 ZM-0 589.9 L22.06 589.9 L22.06 588.13 L-0 588.13 L-0 589.9 ZM-0 584.53 L22.06 584.53 L22.06 582.76 L-0 582.76 L-0 584.53 Z" class="st5"/></g><g id="shape12-68"><text x="-10.6" y="615.48" class="st3">Application3<tspan x="-16.48" class="st6" dy="1.2em">10.0.0.5:PORT</tspan></text></g></g><g id="group16-71" transform="translate(538.583,-311.811)"><title>主机</title><desc>NPC Client 10.0.0.2 Dial To: -&gt;10.0.0.3:PORT -&gt;10.0.0.4:PORT ...</desc><g id="shape17-72" transform="translate(5.68158,0)"><title>工作表.17</title><path d="M0 595.28 L59.5 595.28 L59.5 524.41 L0 524.41 L0 595.28 Z" class="st7"/><path d="M0 595.28 L59.5 595.28 L59.5 524.41 L0 524.41 L0 595.28" class="st8"/><path d="M29.75 595.28 L29.75 524.41" class="st8"/></g><g id="shape18-76" transform="translate(11.5726,-5.14536)"><title>工作表.18</title><path d="M36.09 551.42 L49.23 551.42 L49.23 536.38 L36.09 536.38 L36.09 551.42 ZM14.89 542.47 L16.68 542.47 L16.68 536.06 L14.89 536.06 L14.89 542.47 ZM14.89 551.71 L16.68 551.71 L16.68 545.3 L14.89 545.3 L14.89 551.71 ZM10.63 542.47 L12.43 542.47 L12.43 536.06 L10.63 536.06 L10.63 542.47 ZM10.63 551.71 L12.43 551.71 L12.43 545.3 L10.63 545.3 L10.63 551.71 ZM4.25 542.47 L6.05 542.47 L6.05 536.06 L4.25 536.06 L4.25 542.47 ZM4.25 551.71 L6.05 551.71 L6.05 545.3 L4.25 545.3 L4.25 551.71 ZM0 542.47 L1.79 542.47 L1.79 536.06 L0 536.06 L0 542.47 ZM0 551.71 L1.79 551.71 L1.79 545.3 L0 545.3 L0 551.71 ZM33.82 586.45 L33.82 587.7 L49.39 587.69 L49.39 586.44 L33.82 586.45 ZM33.82 590.24 L33.82 591.49 L49.39 591.48 L49.39 590.24 L33.82 590.24 ZM33.82 594.03 L33.82 595.28 L49.39 595.27 L49.39 594.03 L33.82 594.03 ZM2.96 587.7 L18.52 587.7 L18.52 586.45 L2.95 586.45 L2.96 587.7 ZM2.96 591.49 L18.52 591.49 L18.52 590.24 L2.95 590.24 L2.96 591.49 ZM2.96 595.28 L18.52 595.28 L18.52 594.03 L2.95 594.03 L2.96 595.28 Z" class="st5"/></g><g id="shape19-79" transform="translate(49.0815,-50.4059)"><title>工作表.19</title><path d="M8.15 583.79 A1.11073 1.11073 -180 1 0 10.24 584.56 A1.11073 1.11073 -180 1 0 8.15 583.79 ZM8.17 587.08 A1.11073 1.11073 -180 1 0 10.22 587.93 A1.11073 1.11073 -180 1 0 8.17 587.08 ZM8.18 590.39 A1.11073 1.11073 -180 1 0 10.21 591.28 A1.11073 1.11073 -180 1 0 8.18 590.39 ZM8.18 593.71 A1.11073 1.11073 -180 1 0 10.21 594.6 A1.11073 1.11073 -180 1 0 8.18 593.71 ZM4.1 583.84 A1.11073 1.11073 -180 1 0 6.21 584.51 A1.11073 1.11073 -180 1 0 4.1 583.84 ZM4.11 587.14 A1.11073 1.11073 -180 1 0 6.2 587.87 A1.11073 1.11073 -180 1 0 4.11 587.14 ZM4.11 590.44 A1.11073 1.11073 -180 1 0 6.19 591.22 A1.11073 1.11073 -180 1 0 4.11 590.44 ZM4.11 593.77 A1.11073 1.11073 -180 1 0 6.19 594.55 A1.11073 1.11073 -180 1 0 4.11 593.77 ZM0.04 583.9 A1.11144 1.11144 -180 1 0 2.19 584.46 A1.11144 1.11144 -180 1 0 0.04 583.9 ZM0.05 587.19 A1.11144 1.11144 -180 1 0 2.18 587.82 A1.11144 1.11144 -180 1 0 0.05 587.19 ZM0.05 590.5 A1.11144 1.11144 -180 1 0 2.17 591.16 A1.11144 1.11144 -180 1 0 0.05 590.5 ZM0.05 593.83 A1.11144 1.11144 -180 1 0 2.17 594.49 A1.11144 1.11144 -180 1 0 0.05 593.83 Z" class="st9"/></g><g id="shape16-82"><text x="20.18" y="615.48" class="st3">NPC<tspan x="14.28" class="st6" dy="1.2em">Client</tspan><tspan x="5.81" class="st6" dy="1.2em">10.0.0.2</tspan><tspan x="7.88" class="st6" dy="1.2em">Dial To:</tspan><tspan x="-23.72" class="st6" dy="1.2em">-</tspan>&gt;10.0.0.3:PORT<tspan x="-23.72" class="st6" dy="1.2em">-</tspan>&gt;10.0.0.4:PORT<tspan x="-23.72" class="st6" dy="1.2em">-</tspan>&gt;10.0.0.5:PORT</text></g></g><g id="group20-90" transform="translate(212.598,-311.811)"><title>主机.20</title><desc>NPS Server 1.1.1.1 Listen On: 8003-&gt;10.0.0.3:PORT 8004-&gt;10.0....</desc><g id="shape21-91" transform="translate(5.68158,0)"><title>工作表.21</title><path d="M0 595.28 L59.5 595.28 L59.5 524.41 L0 524.41 L0 595.28 Z" class="st7"/><path d="M0 595.28 L59.5 595.28 L59.5 524.41 L0 524.41 L0 595.28" class="st8"/><path d="M29.75 595.28 L29.75 524.41" class="st8"/></g><g id="shape22-95" transform="translate(11.5726,-5.14536)"><title>工作表.22</title><path d="M36.09 551.42 L49.23 551.42 L49.23 536.38 L36.09 536.38 L36.09 551.42 ZM14.89 542.47 L16.68 542.47 L16.68 536.06 L14.89 536.06 L14.89 542.47 ZM14.89 551.71 L16.68 551.71 L16.68 545.3 L14.89 545.3 L14.89 551.71 ZM10.63 542.47 L12.43 542.47 L12.43 536.06 L10.63 536.06 L10.63 542.47 ZM10.63 551.71 L12.43 551.71 L12.43 545.3 L10.63 545.3 L10.63 551.71 ZM4.25 542.47 L6.05 542.47 L6.05 536.06 L4.25 536.06 L4.25 542.47 ZM4.25 551.71 L6.05 551.71 L6.05 545.3 L4.25 545.3 L4.25 551.71 ZM0 542.47 L1.79 542.47 L1.79 536.06 L0 536.06 L0 542.47 ZM0 551.71 L1.79 551.71 L1.79 545.3 L0 545.3 L0 551.71 ZM33.82 586.45 L33.82 587.7 L49.39 587.69 L49.39 586.44 L33.82 586.45 ZM33.82 590.24 L33.82 591.49 L49.39 591.48 L49.39 590.24 L33.82 590.24 ZM33.82 594.03 L33.82 595.28 L49.39 595.27 L49.39 594.03 L33.82 594.03 ZM2.96 587.7 L18.52 587.7 L18.52 586.45 L2.95 586.45 L2.96 587.7 ZM2.96 591.49 L18.52 591.49 L18.52 590.24 L2.95 590.24 L2.96 591.49 ZM2.96 595.28 L18.52 595.28 L18.52 594.03 L2.95 594.03 L2.96 595.28 Z" class="st5"/></g><g id="shape23-98" transform="translate(49.0815,-50.4059)"><title>工作表.23</title><path d="M8.15 583.79 A1.11073 1.11073 -180 1 0 10.24 584.56 A1.11073 1.11073 -180 1 0 8.15 583.79 ZM8.17 587.08 A1.11073 1.11073 -180 1 0 10.22 587.93 A1.11073 1.11073 -180 1 0 8.17 587.08 ZM8.18 590.39 A1.11073 1.11073 -180 1 0 10.21 591.28 A1.11073 1.11073 -180 1 0 8.18 590.39 ZM8.18 593.71 A1.11073 1.11073 -180 1 0 10.21 594.6 A1.11073 1.11073 -180 1 0 8.18 593.71 ZM4.1 583.84 A1.11073 1.11073 -180 1 0 6.21 584.51 A1.11073 1.11073 -180 1 0 4.1 583.84 ZM4.11 587.14 A1.11073 1.11073 -180 1 0 6.2 587.87 A1.11073 1.11073 -180 1 0 4.11 587.14 ZM4.11 590.44 A1.11073 1.11073 -180 1 0 6.19 591.22 A1.11073 1.11073 -180 1 0 4.11 590.44 ZM4.11 593.77 A1.11073 1.11073 -180 1 0 6.19 594.55 A1.11073 1.11073 -180 1 0 4.11 593.77 ZM0.04 583.9 A1.11144 1.11144 -180 1 0 2.19 584.46 A1.11144 1.11144 -180 1 0 0.04 583.9 ZM0.05 587.19 A1.11144 1.11144 -180 1 0 2.18 587.82 A1.11144 1.11144 -180 1 0 0.05 587.19 ZM0.05 590.5 A1.11144 1.11144 -180 1 0 2.17 591.16 A1.11144 1.11144 -180 1 0 0.05 590.5 ZM0.05 593.83 A1.11144 1.11144 -180 1 0 2.17 594.49 A1.11144 1.11144 -180 1 0 0.05 593.83 Z" class="st9"/></g><g id="shape20-101"><text x="20.84" y="615.48" class="st3">NPS<tspan x="12" class="st6" dy="1.2em">Server</tspan><tspan x="10.37" class="st6" dy="1.2em">1.1.1.1</tspan><tspan x="-1.29" class="st6" dy="1.2em">Listen On:</tspan><tspan x="-41.96" class="st6" dy="1.2em">8003</tspan>-&gt;10.0.0.3:PORT<tspan x="-41.96" class="st6" dy="1.2em">8004</tspan>-&gt;10.0.0.4:PORT<tspan x="-41.96" class="st6" dy="1.2em">8005</tspan>-&gt;10.0.0.5:PORT</text></g></g><g id="group24-109" transform="translate(49.6063,-496.063)"><title>用户</title><desc>User1 Wants:APP1</desc><g id="shape25-110" transform="translate(18.0575,0)"><title>工作表.25</title><path d="M26.29 533.22 A8.81 8.81 -180 1 0 8.67 533.22 A8.81 8.81 -180 1 0 26.29 533.22 ZM27.58 544.41 L7.17 544.41 C3.22 544.41 0 547.62 0 551.58 L0 576.58 L5.59 576.58 L5.59 562.03 L7.45 562.03 L7.45 595.28 L16.55 595.28 L16.55 580.42 C16.55 579.9 16.97 579.48 17.48 579.48 C18 579.48 18.42 579.9 18.42 580.42 L18.42 595.28 L28.04 595.28 L28.04 561.98 L29.91 561.98 L29.91 576.58 L34.75 576.58 L34.75 551.58 C34.75 547.62 31.54 544.41 27.58 544.41 Z" class="st1"/></g><g id="shape24-112"><text x="13.96" y="615.48" class="st3">User1<tspan x="-9.62" class="st6" dy="1.2em">Wants:APP1</tspan></text></g></g><g id="group26-115" transform="translate(49.6063,-311.811)"><title>用户.26</title><desc>User2 Wants:APP2</desc><g id="shape27-116" transform="translate(18.0575,0)"><title>工作表.27</title><path d="M26.29 533.22 A8.81 8.81 -180 1 0 8.67 533.22 A8.81 8.81 -180 1 0 26.29 533.22 ZM27.58 544.41 L7.17 544.41 C3.22 544.41 0 547.62 0 551.58 L0 576.58 L5.59 576.58 L5.59 562.03 L7.45 562.03 L7.45 595.28 L16.55 595.28 L16.55 580.42 C16.55 579.9 16.97 579.48 17.48 579.48 C18 579.48 18.42 579.9 18.42 580.42 L18.42 595.28 L28.04 595.28 L28.04 561.98 L29.91 561.98 L29.91 576.58 L34.75 576.58 L34.75 551.58 C34.75 547.62 31.54 544.41 27.58 544.41 Z" class="st1"/></g><g id="shape26-118"><text x="13.96" y="615.48" class="st3">User2<tspan x="-9.62" class="st6" dy="1.2em">Wants:APP2</tspan></text></g></g><g id="group28-121" transform="translate(49.6063,-127.559)"><title>用户.28</title><desc>User3 Wants:APP3</desc><g id="shape29-122" transform="translate(18.0575,0)"><title>工作表.29</title><path d="M26.29 533.22 A8.81 8.81 -180 1 0 8.67 533.22 A8.81 8.81 -180 1 0 26.29 533.22 ZM27.58 544.41 L7.17 544.41 C3.22 544.41 0 547.62 0 551.58 L0 576.58 L5.59 576.58 L5.59 562.03 L7.45 562.03 L7.45 595.28 L16.55 595.28 L16.55 580.42 C16.55 579.9 16.97 579.48 17.48 579.48 C18 579.48 18.42 579.9 18.42 580.42 L18.42 595.28 L28.04 595.28 L28.04 561.98 L29.91 561.98 L29.91 576.58 L34.75 576.58 L34.75 551.58 C34.75 547.62 31.54 544.41 27.58 544.41 Z" class="st1"/></g><g id="shape28-124"><text x="13.96" y="615.48" class="st3">User3<tspan x="-9.62" class="st6" dy="1.2em">Wants:APP3</tspan></text></g></g><g id="shape1003-127" transform="translate(99.8466,-514.757)"><title>动态连接线.1003</title><desc>-&gt;8003 Multi Conn</desc><path d="M5.09 601.03 L5.33 601.3 L113.11 723.13" class="st10"/><rect width="81.211" height="43.2" x="15.454" y="663.236" class="st12"/><text x="30.58" y="679.44" class="st13">-&gt;8003<tspan x="15.45" class="st6" dy="1.2em">Multi Conn</tspan></text></g><g id="shape1004-139" transform="translate(102.415,-340.157)"><title>动态连接线.1004</title><desc>-&gt;8004 Multi Conn</desc><path d="M7.68 588.19 L8.04 588.19 L107.83 588.19" class="st10"/><rect width="81.211" height="43.2" x="17.327" y="566.589" class="st12"/><text x="32.45" y="582.79" class="st13">-&gt;8004<tspan x="17.33" class="st6" dy="1.2em">Multi Conn</tspan></text></g><g id="shape1005-149" transform="translate(98.1493,-177.812)"><title>动态连接线.1005</title><desc>-&gt;8005 Multi Conn</desc><path d="M5.09 589.52 L5.33 589.25 L114.8 465.5" class="st10"/><rect width="81.211" height="43.2" x="19.46" y="505.776" class="st12"/><text x="34.58" y="521.98" class="st13">-&gt;8005<tspan x="19.46" class="st6" dy="1.2em">Multi Conn</tspan></text></g><g id="shape1006-159" transform="translate(277.783,-354.331)"><title>动态连接线.1006</title><desc>NPS &amp; NPC Multiplexing Connection TCP or KCP Only One Conn Pe...</desc><path d="M7.68 602.36 L8.04 602.36 L132.83 602.36" class="st10"/><rect width="91.538" height="151.2" x="24.667" y="526.762" class="st12"/><text x="30.38" y="542.96" class="st13">NPS &amp; NPC<tspan x="24.67" class="st6" dy="1.2em">Multiplexing</tspan><tspan x="28.6" class="st6" dy="1.2em">Connection</tspan><tspan x="30.53" class="st6" dy="1.2em">TCP or KCP</tspan><tspan x="36.41" class="st6" dy="1.2em">Only One</tspan><tspan x="32.66" class="st6" dy="1.2em">Conn Peer</tspan><tspan x="55.18" class="st6" dy="1.2em">NPC</tspan></text></g><g id="shape1007-174" transform="translate(603.767,-380.876)"><title>动态连接线.1007</title><desc>-&gt;PORT Multi Conn</desc><path d="M5.09 589.52 L5.33 589.25 L105.29 476.25" class="st10"/><rect width="81.211" height="43.2" x="14.399" y="529.355" class="st12"/><text x="27.89" y="545.56" class="st13">-&gt;PORT<tspan x="14.4" class="st6" dy="1.2em">Multi Conn</tspan></text></g><g id="shape1008-184" transform="translate(603.767,-340.157)"><title>动态连接线.1008</title><desc>-&gt;PORT Multi Conn</desc><path d="M7.68 588.19 L8.04 588.19 L102.58 588.19" class="st10"/><rect width="81.211" height="43.2" x="14.705" y="566.589" class="st12"/><text x="28.19" y="582.79" class="st13">-&gt;PORT<tspan x="14.7" class="st6" dy="1.2em">Multi Conn</tspan></text></g><g id="shape1009-194" transform="translate(603.767,-313.612)"><title>动态连接线.1009</title><desc>-&gt;PORT Multi Conn</desc><path d="M5.09 601.03 L5.33 601.3 L105.29 714.3" class="st10"/><rect width="81.211" height="43.2" x="27.438" y="646.343" class="st12"/><text x="40.93" y="662.54" class="st13">-&gt;PORT<tspan x="27.44" class="st6" dy="1.2em">Multi Conn</tspan></text></g><g id="shape1010-204" transform="translate(488.431,-340.157)"><title>动态连接线.1010</title><desc>NPS &amp; NPC</desc><path d="M7.68 588.19 L8.04 588.19 L47.79 588.19" class="st10"/><rect width="30.516" height="64.8" x="12.659" y="555.789" class="st12"/><text x="13.32" y="571.99" class="st13">NPS<tspan x="21.78" class="st6" dy="1.2em">&amp;</tspan><tspan x="12.66" class="st6" dy="1.2em">NPC</tspan></text></g><g id="shape1011-215" transform="translate(34.0157,-62.8844)"><title>工作表.1011</title><path d="M0 595.28 L398.27 595.28 L398.27 85.04 L0 85.04 L0 595.28 Z" class="st14"/></g><g id="shape1012-217" transform="translate(473.386,-62.8844)"><title>工作表.1012</title><path d="M0 595.28 L320.31 595.28 L320.31 85.04 L0 85.04 L0 595.28 Z" class="st14"/></g><g id="shape1013-219" transform="translate(255.118,-496.063)"><title>工作表.1013</title><desc>Internet</desc><rect width="127.559" height="70.866" x="0" y="524.409" class="st15"/><text x="23.98" y="567.04" class="st16">Internet</text></g><g id="shape1014-222" transform="translate(517.323,-515.866)"><title>工作表.1014</title><desc>Intranet</desc><rect width="152" height="31.26" x="0" y="564.016" class="st15"/><text x="36.43" y="586.85" class="st16">Intranet</text></g></g></svg>